HIERARCHY
ROOT Hips
{
	OFFSET 0.000000 0.000000 0.000000
	CHANNELS 6 Xposition Yposition Zposition Zrotation Yrotation Xrotation 
	JOINT LHipJoint
	{
		OFFSET 0.000000 0.000000 0.000000
		CHANNELS 3 Zrotation Yrotation Xrotation
		JOINT LeftUpLeg
		{
			OFFSET 1.363060 -1.794630 0.839290
			CHANNELS 3 Zrotation Yrotation Xrotation
			JOINT LeftLeg
			{
				OFFSET 2.448110 -6.726130 0.000000
				CHANNELS 3 Zrotation Yrotation Xrotation
				JOINT LeftFoot
				{
					OFFSET 2.562200 -7.039590 0.000000
					CHANNELS 3 Zrotation Yrotation Xrotation
					JOINT LeftToeBase
					{
						OFFSET 0.157640 -0.433110 2.322550
						CHANNELS 3 Zrotation Yrotation Xrotation
						End Site
						{
							OFFSET 0.000000 0.000000 0.000000
						}
					}
				}
			}
		}
	}
	JOINT RHipJoint
	{
		OFFSET 0.000000 0.000000 0.000000
		CHANNELS 3 Zrotation Yrotation Xrotation
		JOINT RightUpLeg
		{
			OFFSET -1.305520 -1.794630 0.839290
			CHANNELS 3 Zrotation Yrotation Xrotation
			JOINT RightLeg
			{
				OFFSET -2.542530 -6.985550 0.000000
				CHANNELS 3 Zrotation Yrotation Xrotation
				JOINT RightFoot
				{
					OFFSET -2.568260 -7.056230 0.000000
					CHANNELS 3 Zrotation Yrotation Xrotation
					JOINT RightToeBase
					{
						OFFSET -0.164730 -0.452590 2.363150
						CHANNELS 3 Zrotation Yrotation Xrotation
						End Site
						{
							OFFSET 0.000000 0.000000 0.000000
						}
					}
				}
			}
		}
	}
}
MOTION
Frames: 22
Frame Time: 0.008333
9.762216 14.841237 1.070923 54.235750 -84.227828 9.352753 -8.460066 -1.904509 1.957309 -8.943181 -15.515035 -103.090311 1.808396 6.145363 79.555592 1.652417 5.717680 -8.913811 0.305300 -0.000000 -47.728200 8.319376 1.790975 3.409809 4.726613 10.851083 -93.073986 1.150029 -5.228414 64.012751 -3.124196 -2.589621 -31.520948 2.063300 -0.000000 -53.766500
9.664496 14.898049 1.064897 54.842003 -84.209350 8.595855 -8.445832 -1.911627 1.978522 -8.940505 -15.555606 -103.134659 1.953090 6.127919 79.931111 1.724394 6.301558 -7.583839 0.496500 -0.000000 -46.204400 8.350518 1.743149 3.396992 4.871852 10.654143 -91.971839 1.266051 -5.098537 62.983107 -3.110181 -2.498284 -31.460127 2.039200 -0.000000 -54.011800
9.566856 14.952715 1.059808 55.442104 -84.206746 7.833875 -8.425880 -1.919287 1.997766 -8.934254 -15.603834 -103.184010 2.081283 6.109944 80.287367 1.815880 6.926196 -6.462829 0.684600 0.000000 -44.464400 8.380700 1.697739 3.371555 5.029953 10.454121 -90.867393 1.376975 -4.972783 61.986806 -3.090158 -2.401504 -31.372507 2.010300 0.000000 -54.321600
9.469103 15.005360 1.055704 56.026924 -84.222037 7.080488 -8.401520 -1.925629 2.018165 -8.921657 -15.658594 -103.242810 2.189851 6.092303 80.603963 1.920448 7.566078 -5.571229 0.863000 0.000000 -42.576800 8.409867 1.653332 3.336353 5.199719 10.255920 -89.767439 1.482546 -4.850855 61.022359 -3.063400 -2.298886 -31.249825 1.975600 0.000000 -54.657500
9.371101 15.056021 1.052656 56.594413 -84.259225 6.342106 -8.374044 -1.930239 2.039447 -8.901109 -15.713659 -103.314205 2.276372 6.076493 80.863044 2.030717 8.190379 -4.921367 1.022300 -0.000000 -40.629600 8.437399 1.608669 3.291981 5.381381 10.065562 -88.673737 1.583188 -4.732015 60.084282 -3.029180 -2.188872 -31.086355 1.934099 -0.000000 -55.043900
9.272752 15.104775 1.050699 57.134596 -84.318485 5.630765 -8.344623 -1.931878 2.063787 -8.869449 -15.766897 -103.404120 2.339143 6.063527 81.046119 2.139242 8.766418 -4.514322 1.152500 -0.000000 -38.718800 8.462838 1.562672 3.240093 5.574652 9.886213 -87.587757 1.679722 -4.615640 59.168317 -2.987995 -2.070325 -30.886358 1.886300 -0.000000 -55.459500
9.173904 15.151558 1.049781 57.639102 -84.399101 4.958476 -8.314394 -1.929467 2.092678 -8.824609 -15.815405 -103.517621 2.376699 6.054238 81.135068 2.239103 9.262902 -4.340692 1.244700 0.000000 -36.936600 8.485681 1.514423 3.181874 5.779168 9.720478 -86.508944 1.773206 -4.500788 58.268743 -2.940825 -1.942574 -30.657460 1.833300 -0.000000 -55.899200
9.074328 15.196281 1.049832 58.099642 -84.495459 4.337119 -8.284074 -1.920851 2.129928 -8.764809 -15.862788 -103.660615 2.387761 6.048328 81.109532 2.324658 9.654141 -4.377583 1.294000 -0.000000 -35.381700 8.505975 1.463604 3.119346 5.992258 9.566108 -85.438915 1.864780 -4.386983 57.382533 -2.889487 -1.805494 -30.414267 1.777100 -0.000000 -56.322000
8.974071 15.238963 1.050737 58.507497 -84.604698 3.774948 -8.254112 -1.905203 2.175996 -8.690995 -15.907108 -103.835063 2.370814 6.045865 80.950876 2.391410 9.920054 -4.596939 1.298800 0.000001 -34.113300 8.523097 1.410100 3.052436 6.212673 9.423068 -84.375495 1.955169 -4.273576 56.506174 -2.835713 -1.660793 -30.167901 1.719600 -0.000001 -56.747000
8.872990 15.279501 1.052335 58.859571 -84.720836 3.277932 -8.224815 -1.880720 2.233120 -8.605227 -15.951399 -104.041804 2.324256 6.045758 80.638386 2.436734 10.050401 -4.960673 1.263400 0.000000 -33.187100 8.537101 1.354058 2.981972 6.437276 9.288500 -83.318967 2.044763 -4.160169 55.638345 -2.781501 -1.511292 -29.929976 1.662700 0.000000 -57.162300
8.771040 15.317890 1.054479 59.159411 -84.834210 2.843585 -8.195935 -1.844813 2.304703 -8.511224 -16.004672 -104.279677 2.246444 6.045719 80.148570 2.459989 10.045817 -5.422336 1.197000 -0.000000 -32.648699 8.548635 1.296391 2.908801 6.660710 9.155004 -82.273924 2.133567 -4.047403 54.781894 -2.728399 -1.359333 -29.710198 1.608200 -0.000000 -57.553500
8.668190 15.354147 1.057002 59.411844 -84.941789 2.468535 -8.167822 -1.796663 2.390256 -8.414882 -16.066053 -104.540910 2.135502 6.044085 79.460867 2.461546 9.912943 -5.939014 1.110200 0.000000 -32.501800 8.557578 1.237399 2.832118 6.879954 9.021709 -81.239191 2.220843 -3.935046 53.937119 -2.677576 -1.210032 -29.509571 1.557000 -0.000000 -57.955300
8.564349 15.388331 1.059823 59.622418 -85.034913 2.147944 -8.140398 -1.733817 2.492943 -8.321329 -16.146083 -104.817015 1.990179 6.037234 78.552096 2.443970 9.670025 -6.463346 1.016101 -0.000000 -32.752800 8.564847 1.178097 2.751932 7.090286 8.880803 -80.220555 2.305806 -3.824453 53.110352 -2.629430 -1.065949 -29.328065 1.509500 -0.000000 -58.352600
8.459502 15.420510 1.062812 59.818183 -85.112211 1.855860 -8.114150 -1.655631 2.611596 -8.239133 -16.244718 -105.093526 1.809200 6.022636 77.403743 2.410050 9.337385 -6.955907 0.925900 0.000000 -33.383900 8.570770 1.119083 2.666915 7.287626 8.731648 -79.219079 2.386922 -3.716207 52.305913 -2.583640 -0.930573 -29.158012 1.465401 -0.000000 -58.776200
8.353653 15.450846 1.066049 60.001213 -85.170442 1.588478 -8.089703 -1.560919 2.747760 -8.173314 -16.367854 -105.356350 1.592341 5.996674 75.999617 2.363717 8.940680 -7.382783 0.848900 -0.000000 -34.353599 8.575862 1.060956 2.575820 7.470459 8.569872 -78.238515 2.463216 -3.611967 51.531070 -2.539238 -0.804601 -28.991198 1.423900 0.000000 -59.223200
8.246625 15.479399 1.069561 60.191063 -85.211052 1.327189 -8.068299 -1.449551 2.901068 -8.130088 -16.515141 -105.588402 1.339655 5.956362 74.329379 2.308672 8.504453 -7.720289 0.790900 0.000000 -35.603499 8.580508 1.003933 2.476983 7.638170 8.395308 -77.279722 2.533563 -3.512875 50.791962 -2.494786 -0.688018 -28.816728 1.383400 0.000000 -59.707700
8.138423 15.506285 1.073509 60.399074 -85.237413 1.057468 -8.051231 -1.322061 3.071239 -8.114164 -16.685468 -105.774325 1.051941 5.898986 72.389675 2.248178 8.050688 -7.954111 0.754900 -0.000000 -37.056700 8.584828 0.948205 2.368429 7.791885 8.208206 -76.342511 2.597209 -3.420355 50.095377 -2.448413 -0.578506 -28.624209 1.342500 0.000000 -60.232800
8.028913 15.531502 1.078073 60.632812 -85.254869 0.770237 -8.040158 -1.179749 3.257931 -8.128527 -16.874721 -105.900978 0.730376 5.822280 70.185157 2.184755 7.596780 -8.080708 0.741000 0.000000 -38.619600 8.588828 0.893740 2.248365 7.934333 8.010348 -75.426152 2.653803 -3.335654 49.448123 -2.398321 -0.472374 -28.405901 1.299500 -0.000000 -60.799700
7.917983 15.554945 1.083556 60.873935 -85.271607 0.481920 -8.036948 -1.024876 3.461300 -8.172370 -17.076247 -105.961649 0.376664 5.724514 67.730003 2.119622 7.152867 -8.105810 0.747200 -0.000000 -40.173900 8.591986 0.839886 2.115716 8.071328 7.806635 -74.529224 2.703551 -3.259597 48.855846 -2.343134 -0.365184 -28.157668 1.253099 0.000000 -61.394300
7.805562 15.576500 1.090017 61.154799 -85.293697 0.156465 -8.042562 -0.860045 3.679908 -8.249446 -17.283727 -105.948965 -0.007802 5.604150 65.044407 2.052751 6.723520 -8.038225 0.770700 0.000000 -41.666400 8.594692 0.787326 1.968720 8.204615 7.597125 -73.649051 2.746673 -3.193372 48.325551 -2.281388 -0.251022 -27.878791 1.202200 0.000001 -62.033100
7.691573 15.595982 1.097749 61.446056 -85.329348 -0.179674 -8.058077 -0.688936 3.913536 -8.356160 -17.488665 -105.866199 -0.421092 5.460031 62.158572 1.982741 6.305075 -7.895633 0.806701 0.000000 -43.004900 8.596425 0.735575 1.807433 8.340618 7.387125 -72.785095 2.783908 -3.137466 47.862354 -2.212658 -0.125215 -27.572339 1.146200 -0.000000 -62.702800
7.575907 15.613060 1.106887 61.735797 -85.384973 -0.515042 -8.083784 -0.515497 4.161535 -8.489047 -17.683559 -105.720770 -0.861386 5.290998 59.108169 1.907144 5.888416 -7.698312 0.850000 0.000000 -44.143800 8.597332 0.684567 1.632571 8.483500 7.179970 -71.937224 2.815941 -3.092170 47.471207 -2.137053 0.015955 -27.244302 1.085399 0.000000 -63.401700
